
<svg width="0" height="0" class="hidden">

<!-- [ ICONS ] -->
  <!-- [ icon: info ] -->
  <symbol xmlns="http://www.w3.org/2000/svg" viewBox="0 0 16 16" id="ico-info">
    <path d="M16 8C16 10.1217 15.1571 12.1566 13.6569 13.6569C12.1566 15.1571 10.1217 16 8 16C5.87827 16 3.84344 15.1571 2.34315 13.6569C0.842855 12.1566 0 10.1217 0 8C0 5.87827 0.842855 3.84344 2.34315 2.34315C3.84344 0.842855 5.87827 0 8 0C10.1217 0 12.1566 0.842855 13.6569 2.34315C15.1571 3.84344 16 5.87827 16 8ZM5.496 6.033H6.321C6.459 6.033 6.569 5.92 6.587 5.783C6.677 5.127 7.127 4.649 7.929 4.649C8.615 4.649 9.243 4.992 9.243 5.817C9.243 6.452 8.869 6.744 8.278 7.188C7.605 7.677 7.072 8.248 7.11 9.175L7.113 9.392C7.11405 9.45761 7.14085 9.52017 7.18762 9.5662C7.23439 9.61222 7.29738 9.63801 7.363 9.638H8.174C8.2403 9.638 8.30389 9.61166 8.35078 9.56478C8.39766 9.51789 8.424 9.4543 8.424 9.388V9.283C8.424 8.565 8.697 8.356 9.434 7.797C10.043 7.334 10.678 6.82 10.678 5.741C10.678 4.23 9.402 3.5 8.005 3.5C6.738 3.5 5.35 4.09 5.255 5.786C5.25363 5.81829 5.25888 5.85053 5.27043 5.88072C5.28198 5.91091 5.29958 5.93841 5.32216 5.96155C5.34473 5.98468 5.3718 6.00296 5.40169 6.01524C5.43159 6.02753 5.46368 6.03357 5.496 6.033ZM7.821 12.476C8.431 12.476 8.85 12.082 8.85 11.549C8.85 10.997 8.43 10.609 7.821 10.609C7.237 10.609 6.812 10.997 6.812 11.549C6.812 12.082 7.237 12.476 7.822 12.476H7.821Z"></path>
  </symbol>

  <!-- [ icon: statistics ] -->
  <symbol xmlns="http://www.w3.org/2000/svg" viewBox="0 0 90 90" id="ico-statistics">
    <path d="M13.3594 42.1875C15.4866 42.1875 17.412 41.334 18.8347 39.9635L26.6398 43.8657C26.6006 44.1836 26.543 44.496 26.543 44.8242C26.543 49.1858 30.0916 52.7344 34.4531 52.7344C38.8147 52.7344 42.3633 49.1858 42.3633 44.8242C42.3633 43.6068 42.0639 42.467 41.5702 41.4356L52.1583 30.8475C53.1896 31.3412 54.3295 31.6406 55.5469 31.6406C59.9084 31.6406 63.457 28.092 63.457 23.7305C63.457 22.9092 63.2957 22.1326 63.0622 21.3876L72.2619 14.4896C73.5171 15.328 75.0215 15.8203 76.6406 15.8203C81.0022 15.8203 84.5508 12.2717 84.5508 7.91016C84.5508 3.54858 81.0022 0 76.6406 0C72.2791 0 68.7305 3.54858 68.7305 7.91016C68.7305 8.73138 68.8918 9.50798 69.1253 10.253L59.9256 17.151C58.6704 16.3126 57.166 15.8203 55.5469 15.8203C51.1853 15.8203 47.6367 19.3689 47.6367 23.7305C47.6367 24.9479 47.9361 26.0877 48.4298 27.1191L37.8417 37.7071C36.8104 37.2134 35.6705 36.9141 34.4531 36.9141C32.3259 36.9141 30.4005 37.7676 28.9778 39.1381L21.1727 35.2359C21.2119 34.918 21.2695 34.6056 21.2695 34.2773C21.2695 29.9158 17.7209 26.3672 13.3594 26.3672C8.9978 26.3672 5.44922 29.9158 5.44922 34.2773C5.44922 38.6389 8.9978 42.1875 13.3594 42.1875V42.1875Z" ></path>
    <path d="M87.3633 84.7266H84.5508V29.0039C84.5508 27.5468 83.3711 26.3672 81.9141 26.3672H71.3672C69.9101 26.3672 68.7305 27.5468 68.7305 29.0039V84.7266H63.457V44.8242C63.457 43.3672 62.2774 42.1875 60.8203 42.1875H50.2734C48.8164 42.1875 47.6367 43.3672 47.6367 44.8242V84.7266H42.3633V65.918C42.3633 64.4609 41.1836 63.2812 39.7266 63.2812H29.1797C27.7226 63.2812 26.543 64.4609 26.543 65.918V84.7266H21.2695V55.3711C21.2695 53.914 20.0899 52.7344 18.6328 52.7344H8.08594C6.62888 52.7344 5.44922 53.914 5.44922 55.3711V84.7266H2.63672C1.17966 84.7266 0 85.9062 0 87.3633C0 88.8203 1.17966 90 2.63672 90H87.3633C88.8203 90 90 88.8203 90 87.3633C90 85.9062 88.8203 84.7266 87.3633 84.7266Z" ></path>
  </symbol>

  <!-- [ icon: application ] -->
  <symbol xmlns="http://www.w3.org/2000/svg" viewBox="0 0 102 80" id="ico-application">
    <path d="M96.747 24.2455H87.5185L65.2381 2.0973C63.1288 -0.0120765 59.833 -0.0120765 57.7236 2.0973C55.6142 4.20667 55.6142 7.50247 57.7236 9.61185L72.4892 24.2455H29.5107L44.2763 9.47992C46.3857 7.37054 46.3857 4.07474 44.2763 1.96536C42.1669 -0.144013 38.8711 -0.144013 36.7618 1.96536L14.4814 24.2455H5.25287C1.6934 24.2455 -0.811584 27.5413 0.243104 30.9691L13.0311 75.7933C13.6902 78.0344 15.7996 79.6165 18.0409 79.6165H83.9587C86.3317 79.6165 88.4411 78.0344 88.9684 75.7933L101.756 30.9691C102.811 27.5415 100.307 24.2455 96.747 24.2455ZM28.456 64.851C28.0606 65.1147 27.665 65.1147 27.2696 65.1147C25.5558 65.1147 24.1055 64.06 23.5782 62.3462L18.3047 46.5259C17.6457 44.4166 18.7001 42.1754 20.8095 41.5162C22.9189 40.8571 25.16 41.9116 25.8193 44.0209L31.0927 59.8413C31.752 61.9506 30.5654 64.1917 28.456 64.851ZM54.9549 59.8413C54.9549 62.0824 53.2412 63.7963 50.9999 63.7963C48.7587 63.7963 47.0448 62.0826 47.0448 59.8413V44.0209C47.0448 41.7798 48.7585 40.0659 50.9999 40.0659C53.241 40.0659 54.9549 41.7796 54.9549 44.0209V59.8413ZM83.6952 45.2076L78.4217 61.0279C77.8944 62.7417 76.4443 63.7963 74.7303 63.7963C74.3349 63.7963 73.9393 63.7963 73.5439 63.5327C71.4345 62.8736 70.3798 60.6323 71.0391 58.5229L76.3126 42.7026C76.9716 40.5932 79.213 39.5385 81.3223 40.1978C83.2998 40.9888 84.4862 43.2299 83.6952 45.2076Z"></path>
  </symbol>

  <!-- [ icon: product ] -->
  <symbol xmlns="http://www.w3.org/2000/svg" viewBox="0 0 79 79" id="ico-product">
    <path d="M55.055 50.918L52.4966 58.5933C52.1813 59.5384 51.2969 60.1758 50.3008 60.1758H28.6992C27.7031 60.1758 26.8186 59.5384 26.5036 58.5933L23.945 50.918H0V76.6855C0 77.9637 1.03626 79 2.31445 79H76.6855C77.9637 79 79 77.9637 79 76.6855V50.918H55.055ZM50.3008 71.748H28.6992C27.421 71.748 26.3848 70.7118 26.3848 69.4336C26.3848 68.1554 27.421 67.1191 28.6992 67.1191H50.3008C51.579 67.1191 52.6152 68.1554 52.6152 69.4336C52.6152 70.7118 51.579 71.748 50.3008 71.748Z" ></path>
    <path d="M28.3365 49.4542L30.3675 55.5469H48.6327L50.6635 49.4542C51.2937 47.564 53.0625 46.2891 55.055 46.2891H64.1875V33.9453H14.8125V46.2891H23.945C25.9376 46.2891 27.7063 47.564 28.3365 49.4542Z" ></path>
    <path d="M19.4414 16.9727H59.5586V29.3164H19.4414V16.9727Z"></path>
    <path d="M69.5268 7.95771C69.2813 6.91142 68.3481 6.17188 67.2734 6.17188H59.5586V12.3438C62.115 12.3438 64.1875 14.4163 64.1875 16.9727V29.3164C66.7439 29.3164 68.8164 31.3889 68.8164 33.9453V46.2891H78.5198L69.5268 7.95771Z" ></path>
    <path d="M14.8125 29.3164V16.9727C14.8125 14.4163 16.885 12.3438 19.4414 12.3438V6.17188H11.7266C10.6519 6.17188 9.71869 6.91142 9.4732 7.95771L0.480164 46.2891H10.1836V33.9453C10.1836 31.3889 12.2561 29.3164 14.8125 29.3164Z" ></path>
    <path d="M52.6152 0H26.3848C25.1066 0 24.0703 1.03626 24.0703 2.31445V12.3438H54.9297V2.31445C54.9297 1.03626 53.8934 0 52.6152 0Z" ></path>
  </symbol>

  <!-- [ icon: edit ] -->
  <symbol xmlns="http://www.w3.org/2000/svg" viewBox="0 0 55 55" id="ico-edit">
    <path d="M34.2004 9.17879L45.3886 20.4217L17.0681 48.881L5.88617 37.638L34.2004 9.17879ZM53.8783 6.46725L48.8888 1.45329C46.9605 -0.484431 43.8294 -0.484431 41.8945 1.45329L37.1151 6.25617L48.3033 17.4992L53.8783 11.8969C55.3739 10.3939 55.3739 7.97016 53.8783 6.46725ZM0.0311342 53.4409C-0.172477 54.3617 0.654864 55.1868 1.57132 54.9629L14.0387 51.9252L2.85684 40.6823L0.0311342 53.4409Z"></path>
  </symbol>

  <!-- [ icon: edit ] -->
  <symbol xmlns="http://www.w3.org/2000/svg" viewBox="0 0 79 79" id="ico-archive">
    <path d="M55.055 50.918L52.4966 58.5933C52.1813 59.5384 51.2969 60.1758 50.3008 60.1758H28.6992C27.7031 60.1758 26.8186 59.5384 26.5036 58.5933L23.945 50.918H0V76.6855C0 77.9637 1.03626 79 2.31445 79H76.6855C77.9637 79 79 77.9637 79 76.6855V50.918H55.055ZM50.3008 71.748H28.6992C27.421 71.748 26.3848 70.7118 26.3848 69.4336C26.3848 68.1554 27.421 67.1191 28.6992 67.1191H50.3008C51.579 67.1191 52.6152 68.1554 52.6152 69.4336C52.6152 70.7118 51.579 71.748 50.3008 71.748Z" ></path>
    <path d="M28.3365 49.4542L30.3675 55.5469H48.6327L50.6635 49.4542C51.2937 47.564 53.0625 46.2891 55.055 46.2891H64.1875V33.9453H14.8125V46.2891H23.945C25.9376 46.2891 27.7063 47.564 28.3365 49.4542Z" ></path>
    <path d="M19.4414 16.9727H59.5586V29.3164H19.4414V16.9727Z" ></path>
    <path d="M69.5268 7.95771C69.2813 6.91142 68.3481 6.17188 67.2734 6.17188H59.5586V12.3438C62.115 12.3438 64.1875 14.4163 64.1875 16.9727V29.3164C66.7439 29.3164 68.8164 31.3889 68.8164 33.9453V46.2891H78.5198L69.5268 7.95771Z" ></path>
    <path d="M14.8125 29.3164V16.9727C14.8125 14.4163 16.885 12.3438 19.4414 12.3438V6.17188H11.7266C10.6519 6.17188 9.71869 6.91142 9.4732 7.95771L0.480164 46.2891H10.1836V33.9453C10.1836 31.3889 12.2561 29.3164 14.8125 29.3164Z" ></path>
    <path d="M52.6152 0H26.3848C25.1066 0 24.0703 1.03626 24.0703 2.31445V12.3438H54.9297V2.31445C54.9297 1.03626 53.8934 0 52.6152 0Z" ></path>
  </symbol>


<!-- [ IMAGES ] -->

</svg>